<mxfile host="app.diagrams.net" modified="2021-10-28T06:23:10.809Z" agent="5.0 (Macintosh; Intel Mac OS X 10_15_7) AppleWebKit/537.36 (KHTML, like Gecko) Chrome/95.0.4638.54 Safari/537.36" etag="He6IXsLpl20wcwMCpqqJ" version="15.5.8" type="github">
  <diagram id="nt37_q6I21TsgLLZTpyG" name="第 1 页">
    <mxGraphModel dx="1186" dy="694" grid="1" gridSize="10" guides="1" tooltips="1" connect="1" arrows="1" fold="1" page="1" pageScale="1" pageWidth="827" pageHeight="1169" math="0" shadow="0">
      <root>
        <mxCell id="0" />
        <mxCell id="1" parent="0" />
        <mxCell id="RUa9b3BPvRjI1Ybt043m-9" value="" style="group;fontSize=20;" parent="1" vertex="1" connectable="0">
          <mxGeometry x="320" y="120" width="200" height="480" as="geometry" />
        </mxCell>
        <mxCell id="RUa9b3BPvRjI1Ybt043m-6" value="过期的占内存删除" style="rounded=0;whiteSpace=wrap;html=1;dashed=1;strokeWidth=2;fillColor=#f8cecc;strokeColor=#b85450;fontSize=20;" parent="RUa9b3BPvRjI1Ybt043m-9" vertex="1">
          <mxGeometry width="200" height="240" as="geometry" />
        </mxCell>
        <mxCell id="RUa9b3BPvRjI1Ybt043m-7" value="在合法范围内的" style="rounded=0;whiteSpace=wrap;html=1;strokeWidth=2;fillColor=#cdeb8b;strokeColor=#36393d;fontSize=20;" parent="RUa9b3BPvRjI1Ybt043m-9" vertex="1">
          <mxGeometry y="240" width="200" height="190" as="geometry" />
        </mxCell>
        <mxCell id="RUa9b3BPvRjI1Ybt043m-8" value="新添加的" style="rounded=0;whiteSpace=wrap;html=1;strokeWidth=2;fillColor=#cce5ff;strokeColor=#36393d;fontSize=20;" parent="RUa9b3BPvRjI1Ybt043m-9" vertex="1">
          <mxGeometry y="430" width="200" height="50" as="geometry" />
        </mxCell>
        <mxCell id="RUa9b3BPvRjI1Ybt043m-10" value="" style="shape=curlyBracket;whiteSpace=wrap;html=1;rounded=1;flipH=1;dashed=1;strokeWidth=2;" parent="1" vertex="1">
          <mxGeometry x="550" y="120" width="20" height="480" as="geometry" />
        </mxCell>
        <mxCell id="RUa9b3BPvRjI1Ybt043m-11" value="&lt;font style=&quot;font-size: 17px&quot;&gt;zset整体&lt;/font&gt;" style="text;html=1;align=center;verticalAlign=middle;resizable=0;points=[];autosize=1;strokeColor=none;fillColor=none;" parent="1" vertex="1">
          <mxGeometry x="570" y="350" width="80" height="20" as="geometry" />
        </mxCell>
        <mxCell id="RUa9b3BPvRjI1Ybt043m-16" value="" style="shape=curlyBracket;whiteSpace=wrap;html=1;rounded=1;fontSize=20;strokeWidth=2;" parent="1" vertex="1">
          <mxGeometry x="280" y="360" width="20" height="240" as="geometry" />
        </mxCell>
        <mxCell id="RUa9b3BPvRjI1Ybt043m-18" value="允许&lt;br&gt;时间&lt;br&gt;范围" style="text;html=1;align=center;verticalAlign=middle;resizable=0;points=[];autosize=1;strokeColor=none;fillColor=none;fontSize=20;" parent="1" vertex="1">
          <mxGeometry x="210" y="440" width="60" height="80" as="geometry" />
        </mxCell>
        <mxCell id="RUa9b3BPvRjI1Ybt043m-3" value="" style="endArrow=classic;html=1;rounded=0;dashed=1;strokeWidth=2;" parent="1" edge="1">
          <mxGeometry x="160" y="80" width="50" height="50" as="geometry">
            <mxPoint x="180" y="110" as="sourcePoint" />
            <mxPoint x="180" y="630" as="targetPoint" />
          </mxGeometry>
        </mxCell>
        <mxCell id="RUa9b3BPvRjI1Ybt043m-4" value="Time" style="text;html=1;align=center;verticalAlign=middle;resizable=0;points=[];autosize=1;strokeColor=none;fillColor=none;strokeWidth=6;" parent="1" vertex="1">
          <mxGeometry x="160" y="80" width="40" height="20" as="geometry" />
        </mxCell>
      </root>
    </mxGraphModel>
  </diagram>
</mxfile>
